<svg xmlns="http://www.w3.org/2000/svg" viewBox="0 0 520 150" role="img" aria-labelledby="title desc"><title id="title">World Forward Foundation logo</title><desc id="desc">A globe horizon and forward arrow with WFF wordmark</desc><defs><linearGradient id="g" x1="0" y1="1" x2="1" y2="0"><stop offset="0" stop-color="#0d5a4a"/><stop offset="1" stop-color="#36a57d"/></linearGradient></defs><g transform="translate(8 9)"><circle cx="68" cy="66" r="52" fill="none" stroke="#153f37" stroke-width="6"/><path d="M18 66h100M68 14c-19 18-29 35-29 52s10 34 29 52M68 14c19 18 29 35 29 52s-10 34-29 52M24 43h88M24 89h88" fill="none" stroke="#153f37" stroke-width="3" opacity=".72"/><path d="M34 88c30-9 50-22 78-54" fill="none" stroke="url(#g)" stroke-width="11" stroke-linecap="round"/><path d="M91 29l28-4-9 27" fill="none" stroke="#ed6a3a" stroke-width="9" stroke-linecap="round" stroke-linejoin="round"/></g><text x="142" y="95" fill="#153f37" font-family="Arial,Helvetica,sans-serif" font-size="70" font-weight="800" letter-spacing="-2">WFF</text><text x="145" y="123" fill="#6e756f" font-family="Arial,Helvetica,sans-serif" font-size="18" font-weight="700" letter-spacing="3">WORLD FORWARD FOUNDATION</text></svg>